<svg xmlns="http://www.w3.org/2000/svg" version="1.1" xmlns:xlink="http://www.w3.org/1999/xlink" xmlns:svgjs="http://svgjs.com/svgjs" width="3840" height="2160" preserveAspectRatio="none" viewBox="0 0 3840 2160"><g mask="url(&quot;#SvgjsMask2856&quot;)" fill="none"><rect width="3840" height="2160" x="0" y="0" fill="url(#SvgjsLinearGradient2857)"></rect><path d="M11.9 471.25L81.18 511.25L81.18 591.25L11.9 631.25L-57.38 591.25L-57.38 511.25zM81.18 591.25L150.47 631.25L150.47 711.25L81.18 751.25L11.9 711.25L11.9 631.25zM11.9 711.25L81.18 751.25L81.18 831.25L11.9 871.25L-57.38 831.25L-57.38 751.25zM81.18 831.25L150.47 871.25L150.47 951.25L81.18 991.25L11.9 951.25L11.9 871.25zM81.18 1311.25L150.47 1351.25L150.47 1431.25L81.18 1471.25L11.9 1431.25L11.9 1351.25zM11.9 1911.25L81.18 1951.25L81.18 2031.25L11.9 2071.25L-57.38 2031.25L-57.38 1951.25zM150.47 -8.75L219.75 31.25L219.75 111.25L150.47 151.25L81.18 111.25L81.18 31.25zM219.75 1791.25L289.04 1831.25L289.04 1911.25L219.75 1951.25L150.47 1911.25L150.47 1831.25zM219.75 2031.25L289.04 2071.25L289.04 2151.25L219.75 2191.25L150.47 2151.25L150.47 2071.25zM150.47 2151.25L219.75 2191.25L219.75 2271.25L150.47 2311.25L81.18 2271.25L81.18 2191.25zM289.04 -8.75L358.32 31.25L358.32 111.25L289.04 151.25L219.75 111.25L219.75 31.25zM289.04 231.25L358.32 271.25L358.32 351.25L289.04 391.25L219.75 351.25L219.75 271.25zM358.32 351.25L427.6 391.25L427.6 471.25L358.32 511.25L289.04 471.25L289.04 391.25zM289.04 471.25L358.32 511.25L358.32 591.25L289.04 631.25L219.75 591.25L219.75 511.25zM358.32 591.25L427.6 631.25L427.6 711.25L358.32 751.25L289.04 711.25L289.04 631.25zM289.04 711.25L358.32 751.25L358.32 831.25L289.04 871.25L219.75 831.25L219.75 751.25zM358.32 1551.25L427.6 1591.25L427.6 1671.25L358.32 1711.25L289.04 1671.25L289.04 1591.25zM358.32 2031.25L427.6 2071.25L427.6 2151.25L358.32 2191.25L289.04 2151.25L289.04 2071.25zM289.04 2151.25L358.32 2191.25L358.32 2271.25L289.04 2311.25L219.75 2271.25L219.75 2191.25zM427.6 231.25L496.89 271.25L496.89 351.25L427.6 391.25L358.32 351.25L358.32 271.25zM496.89 351.25L566.17 391.25L566.17 471.25L496.89 511.25L427.6 471.25L427.6 391.25zM496.89 831.25L566.17 871.25L566.17 951.25L496.89 991.25L427.6 951.25L427.6 871.25zM427.6 1191.25L496.89 1231.25L496.89 1311.25L427.6 1351.25L358.32 1311.25L358.32 1231.25zM635.46 351.25L704.74 391.25L704.74 471.25L635.46 511.25L566.17 471.25L566.17 391.25zM635.46 831.25L704.74 871.25L704.74 951.25L635.46 991.25L566.17 951.25L566.17 871.25zM635.46 1311.25L704.74 1351.25L704.74 1431.25L635.46 1471.25L566.17 1431.25L566.17 1351.25zM566.17 1431.25L635.46 1471.25L635.46 1551.25L566.17 1591.25L496.89 1551.25L496.89 1471.25zM635.46 1551.25L704.74 1591.25L704.74 1671.25L635.46 1711.25L566.17 1671.25L566.17 1591.25zM566.17 1671.25L635.46 1711.25L635.46 1791.25L566.17 1831.25L496.89 1791.25L496.89 1711.25zM635.46 2031.25L704.74 2071.25L704.74 2151.25L635.46 2191.25L566.17 2151.25L566.17 2071.25zM774.02 111.25L843.31 151.25L843.31 231.25L774.02 271.25L704.74 231.25L704.74 151.25zM704.74 231.25L774.02 271.25L774.02 351.25L704.74 391.25L635.46 351.25L635.46 271.25zM774.02 591.25L843.31 631.25L843.31 711.25L774.02 751.25L704.74 711.25L704.74 631.25zM774.02 831.25L843.31 871.25L843.31 951.25L774.02 991.25L704.74 951.25L704.74 871.25zM774.02 1551.25L843.31 1591.25L843.31 1671.25L774.02 1711.25L704.74 1671.25L704.74 1591.25zM843.31 -8.75L912.59 31.25L912.59 111.25L843.31 151.25L774.02 111.25L774.02 31.25zM843.31 471.25L912.59 511.25L912.59 591.25L843.31 631.25L774.02 591.25L774.02 511.25zM912.59 831.25L981.88 871.25L981.88 951.25L912.59 991.25L843.31 951.25L843.31 871.25zM912.59 1071.25L981.88 1111.25L981.88 1191.25L912.59 1231.25L843.31 1191.25L843.31 1111.25zM912.59 1791.25L981.88 1831.25L981.88 1911.25L912.59 1951.25L843.31 1911.25L843.31 1831.25zM1051.16 111.25L1120.44 151.25L1120.44 231.25L1051.16 271.25L981.88 231.25L981.88 151.25zM981.88 231.25L1051.16 271.25L1051.16 351.25L981.88 391.25L912.59 351.25L912.59 271.25zM1051.16 351.25L1120.44 391.25L1120.44 471.25L1051.16 511.25L981.88 471.25L981.88 391.25zM981.88 711.25L1051.16 751.25L1051.16 831.25L981.88 871.25L912.59 831.25L912.59 751.25zM1051.16 831.25L1120.44 871.25L1120.44 951.25L1051.16 991.25L981.88 951.25L981.88 871.25zM981.88 1431.25L1051.16 1471.25L1051.16 1551.25L981.88 1591.25L912.59 1551.25L912.59 1471.25zM1051.16 2031.25L1120.44 2071.25L1120.44 2151.25L1051.16 2191.25L981.88 2151.25L981.88 2071.25zM1120.44 -8.75L1189.73 31.25L1189.73 111.25L1120.44 151.25L1051.16 111.25L1051.16 31.25zM1120.44 231.25L1189.73 271.25L1189.73 351.25L1120.44 391.25L1051.16 351.25L1051.16 271.25zM1189.73 1071.25L1259.01 1111.25L1259.01 1191.25L1189.73 1231.25L1120.44 1191.25L1120.44 1111.25zM1120.44 1431.25L1189.73 1471.25L1189.73 1551.25L1120.44 1591.25L1051.16 1551.25L1051.16 1471.25zM1120.44 1671.25L1189.73 1711.25L1189.73 1791.25L1120.44 1831.25L1051.16 1791.25L1051.16 1711.25zM1259.01 -8.75L1328.3 31.25L1328.3 111.25L1259.01 151.25L1189.73 111.25L1189.73 31.25zM1259.01 231.25L1328.3 271.25L1328.3 351.25L1259.01 391.25L1189.73 351.25L1189.73 271.25zM1259.01 471.25L1328.3 511.25L1328.3 591.25L1259.01 631.25L1189.73 591.25L1189.73 511.25zM1259.01 711.25L1328.3 751.25L1328.3 831.25L1259.01 871.25L1189.73 831.25L1189.73 751.25zM1328.3 831.25L1397.58 871.25L1397.58 951.25L1328.3 991.25L1259.01 951.25L1259.01 871.25zM1259.01 951.25L1328.3 991.25L1328.3 1071.25L1259.01 1111.25L1189.73 1071.25L1189.73 991.25zM1328.3 1071.25L1397.58 1111.25L1397.58 1191.25L1328.3 1231.25L1259.01 1191.25L1259.01 1111.25zM1328.3 1791.25L1397.58 1831.25L1397.58 1911.25L1328.3 1951.25L1259.01 1911.25L1259.01 1831.25zM1397.58 -8.75L1466.86 31.25L1466.86 111.25L1397.58 151.25L1328.3 111.25L1328.3 31.25zM1466.86 111.25L1536.15 151.25L1536.15 231.25L1466.86 271.25L1397.58 231.25L1397.58 151.25zM1466.86 591.25L1536.15 631.25L1536.15 711.25L1466.86 751.25L1397.58 711.25L1397.58 631.25zM1466.86 831.25L1536.15 871.25L1536.15 951.25L1466.86 991.25L1397.58 951.25L1397.58 871.25zM1397.58 951.25L1466.86 991.25L1466.86 1071.25L1397.58 1111.25L1328.3 1071.25L1328.3 991.25zM1397.58 1431.25L1466.86 1471.25L1466.86 1551.25L1397.58 1591.25L1328.3 1551.25L1328.3 1471.25zM1466.86 1551.25L1536.15 1591.25L1536.15 1671.25L1466.86 1711.25L1397.58 1671.25L1397.58 1591.25zM1466.86 2031.25L1536.15 2071.25L1536.15 2151.25L1466.86 2191.25L1397.58 2151.25L1397.58 2071.25zM1536.15 -8.75L1605.43 31.25L1605.43 111.25L1536.15 151.25L1466.86 111.25L1466.86 31.25zM1605.43 351.25L1674.72 391.25L1674.72 471.25L1605.43 511.25L1536.15 471.25L1536.15 391.25zM1605.43 831.25L1674.72 871.25L1674.72 951.25L1605.43 991.25L1536.15 951.25L1536.15 871.25zM1536.15 951.25L1605.43 991.25L1605.43 1071.25L1536.15 1111.25L1466.86 1071.25L1466.86 991.25zM1605.43 1071.25L1674.72 1111.25L1674.72 1191.25L1605.43 1231.25L1536.15 1191.25L1536.15 1111.25zM1536.15 1191.25L1605.43 1231.25L1605.43 1311.25L1536.15 1351.25L1466.86 1311.25L1466.86 1231.25zM1605.43 1311.25L1674.72 1351.25L1674.72 1431.25L1605.43 1471.25L1536.15 1431.25L1536.15 1351.25zM1536.15 1671.25L1605.43 1711.25L1605.43 1791.25L1536.15 1831.25L1466.86 1791.25L1466.86 1711.25zM1536.15 1911.25L1605.43 1951.25L1605.43 2031.25L1536.15 2071.25L1466.86 2031.25L1466.86 1951.25zM1674.72 -8.75L1744 31.25L1744 111.25L1674.72 151.25L1605.43 111.25L1605.43 31.25zM1674.72 231.25L1744 271.25L1744 351.25L1674.72 391.25L1605.43 351.25L1605.43 271.25zM1674.72 471.25L1744 511.25L1744 591.25L1674.72 631.25L1605.43 591.25L1605.43 511.25zM1744 1071.25L1813.28 1111.25L1813.28 1191.25L1744 1231.25L1674.72 1191.25L1674.72 1111.25zM1744 1551.25L1813.28 1591.25L1813.28 1671.25L1744 1711.25L1674.72 1671.25L1674.72 1591.25zM1882.57 111.25L1951.85 151.25L1951.85 231.25L1882.57 271.25L1813.28 231.25L1813.28 151.25zM1882.57 831.25L1951.85 871.25L1951.85 951.25L1882.57 991.25L1813.28 951.25L1813.28 871.25zM1882.57 1311.25L1951.85 1351.25L1951.85 1431.25L1882.57 1471.25L1813.28 1431.25L1813.28 1351.25zM1882.57 1551.25L1951.85 1591.25L1951.85 1671.25L1882.57 1711.25L1813.28 1671.25L1813.28 1591.25zM1813.28 1911.25L1882.57 1951.25L1882.57 2031.25L1813.28 2071.25L1744 2031.25L1744 1951.25zM1951.85 231.25L2021.14 271.25L2021.14 351.25L1951.85 391.25L1882.57 351.25L1882.57 271.25zM2021.14 351.25L2090.42 391.25L2090.42 471.25L2021.14 511.25L1951.85 471.25L1951.85 391.25zM1951.85 471.25L2021.14 511.25L2021.14 591.25L1951.85 631.25L1882.57 591.25L1882.57 511.25zM1951.85 711.25L2021.14 751.25L2021.14 831.25L1951.85 871.25L1882.57 831.25L1882.57 751.25zM1951.85 951.25L2021.14 991.25L2021.14 1071.25L1951.85 1111.25L1882.57 1071.25L1882.57 991.25zM1951.85 1431.25L2021.14 1471.25L2021.14 1551.25L1951.85 1591.25L1882.57 1551.25L1882.57 1471.25zM2021.14 1551.25L2090.42 1591.25L2090.42 1671.25L2021.14 1711.25L1951.85 1671.25L1951.85 1591.25zM2021.14 1791.25L2090.42 1831.25L2090.42 1911.25L2021.14 1951.25L1951.85 1911.25L1951.85 1831.25zM2159.7 591.25L2228.99 631.25L2228.99 711.25L2159.7 751.25L2090.42 711.25L2090.42 631.25zM2090.42 711.25L2159.7 751.25L2159.7 831.25L2090.42 871.25L2021.14 831.25L2021.14 751.25zM2159.7 1071.25L2228.99 1111.25L2228.99 1191.25L2159.7 1231.25L2090.42 1191.25L2090.42 1111.25zM2090.42 1431.25L2159.7 1471.25L2159.7 1551.25L2090.42 1591.25L2021.14 1551.25L2021.14 1471.25zM2298.27 591.25L2367.56 631.25L2367.56 711.25L2298.27 751.25L2228.99 711.25L2228.99 631.25zM2228.99 1431.25L2298.27 1471.25L2298.27 1551.25L2228.99 1591.25L2159.7 1551.25L2159.7 1471.25zM2436.84 351.25L2506.12 391.25L2506.12 471.25L2436.84 511.25L2367.56 471.25L2367.56 391.25zM2367.56 951.25L2436.84 991.25L2436.84 1071.25L2367.56 1111.25L2298.27 1071.25L2298.27 991.25zM2367.56 2151.25L2436.84 2191.25L2436.84 2271.25L2367.56 2311.25L2298.27 2271.25L2298.27 2191.25zM2575.41 591.25L2644.69 631.25L2644.69 711.25L2575.41 751.25L2506.12 711.25L2506.12 631.25zM2575.41 831.25L2644.69 871.25L2644.69 951.25L2575.41 991.25L2506.12 951.25L2506.12 871.25zM2575.41 1791.25L2644.69 1831.25L2644.69 1911.25L2575.41 1951.25L2506.12 1911.25L2506.12 1831.25zM2644.69 -8.75L2713.98 31.25L2713.98 111.25L2644.69 151.25L2575.41 111.25L2575.41 31.25zM2713.98 111.25L2783.26 151.25L2783.26 231.25L2713.98 271.25L2644.69 231.25L2644.69 151.25zM2644.69 231.25L2713.98 271.25L2713.98 351.25L2644.69 391.25L2575.41 351.25L2575.41 271.25zM2644.69 471.25L2713.98 511.25L2713.98 591.25L2644.69 631.25L2575.41 591.25L2575.41 511.25zM2644.69 711.25L2713.98 751.25L2713.98 831.25L2644.69 871.25L2575.41 831.25L2575.41 751.25zM2644.69 951.25L2713.98 991.25L2713.98 1071.25L2644.69 1111.25L2575.41 1071.25L2575.41 991.25zM2713.98 2031.25L2783.26 2071.25L2783.26 2151.25L2713.98 2191.25L2644.69 2151.25L2644.69 2071.25zM2852.54 351.25L2921.83 391.25L2921.83 471.25L2852.54 511.25L2783.26 471.25L2783.26 391.25zM2783.26 471.25L2852.54 511.25L2852.54 591.25L2783.26 631.25L2713.98 591.25L2713.98 511.25zM2852.54 591.25L2921.83 631.25L2921.83 711.25L2852.54 751.25L2783.26 711.25L2783.26 631.25zM2852.54 1071.25L2921.83 1111.25L2921.83 1191.25L2852.54 1231.25L2783.26 1191.25L2783.26 1111.25zM2852.54 1311.25L2921.83 1351.25L2921.83 1431.25L2852.54 1471.25L2783.26 1431.25L2783.26 1351.25zM2783.26 1671.25L2852.54 1711.25L2852.54 1791.25L2783.26 1831.25L2713.98 1791.25L2713.98 1711.25zM2852.54 1791.25L2921.83 1831.25L2921.83 1911.25L2852.54 1951.25L2783.26 1911.25L2783.26 1831.25zM2991.11 111.25L3060.4 151.25L3060.4 231.25L2991.11 271.25L2921.83 231.25L2921.83 151.25zM2921.83 231.25L2991.11 271.25L2991.11 351.25L2921.83 391.25L2852.54 351.25L2852.54 271.25zM2921.83 711.25L2991.11 751.25L2991.11 831.25L2921.83 871.25L2852.54 831.25L2852.54 751.25zM2921.83 1191.25L2991.11 1231.25L2991.11 1311.25L2921.83 1351.25L2852.54 1311.25L2852.54 1231.25zM2991.11 1311.25L3060.4 1351.25L3060.4 1431.25L2991.11 1471.25L2921.83 1431.25L2921.83 1351.25zM2991.11 1551.25L3060.4 1591.25L3060.4 1671.25L2991.11 1711.25L2921.83 1671.25L2921.83 1591.25zM2921.83 1671.25L2991.11 1711.25L2991.11 1791.25L2921.83 1831.25L2852.54 1791.25L2852.54 1711.25zM2991.11 1791.25L3060.4 1831.25L3060.4 1911.25L2991.11 1951.25L2921.83 1911.25L2921.83 1831.25zM2921.83 1911.25L2991.11 1951.25L2991.11 2031.25L2921.83 2071.25L2852.54 2031.25L2852.54 1951.25zM2991.11 2031.25L3060.4 2071.25L3060.4 2151.25L2991.11 2191.25L2921.83 2151.25L2921.83 2071.25zM3060.4 471.25L3129.68 511.25L3129.68 591.25L3060.4 631.25L2991.11 591.25L2991.11 511.25zM3129.68 591.25L3198.96 631.25L3198.96 711.25L3129.68 751.25L3060.4 711.25L3060.4 631.25zM3060.4 711.25L3129.68 751.25L3129.68 831.25L3060.4 871.25L2991.11 831.25L2991.11 751.25zM3060.4 951.25L3129.68 991.25L3129.68 1071.25L3060.4 1111.25L2991.11 1071.25L2991.11 991.25zM3129.68 1071.25L3198.96 1111.25L3198.96 1191.25L3129.68 1231.25L3060.4 1191.25L3060.4 1111.25zM3129.68 1551.25L3198.96 1591.25L3198.96 1671.25L3129.68 1711.25L3060.4 1671.25L3060.4 1591.25zM3060.4 2151.25L3129.68 2191.25L3129.68 2271.25L3060.4 2311.25L2991.11 2271.25L2991.11 2191.25zM3268.25 351.25L3337.53 391.25L3337.53 471.25L3268.25 511.25L3198.96 471.25L3198.96 391.25zM3198.96 951.25L3268.25 991.25L3268.25 1071.25L3198.96 1111.25L3129.68 1071.25L3129.68 991.25zM3268.25 1071.25L3337.53 1111.25L3337.53 1191.25L3268.25 1231.25L3198.96 1191.25L3198.96 1111.25zM3337.53 -8.75L3406.82 31.25L3406.82 111.25L3337.53 151.25L3268.25 111.25L3268.25 31.25zM3337.53 231.25L3406.82 271.25L3406.82 351.25L3337.53 391.25L3268.25 351.25L3268.25 271.25zM3406.82 351.25L3476.1 391.25L3476.1 471.25L3406.82 511.25L3337.53 471.25L3337.53 391.25zM3406.82 1071.25L3476.1 1111.25L3476.1 1191.25L3406.82 1231.25L3337.53 1191.25L3337.53 1111.25zM3337.53 1191.25L3406.82 1231.25L3406.82 1311.25L3337.53 1351.25L3268.25 1311.25L3268.25 1231.25zM3406.82 2031.25L3476.1 2071.25L3476.1 2151.25L3406.82 2191.25L3337.53 2151.25L3337.53 2071.25zM3545.38 111.25L3614.67 151.25L3614.67 231.25L3545.38 271.25L3476.1 231.25L3476.1 151.25zM3476.1 231.25L3545.38 271.25L3545.38 351.25L3476.1 391.25L3406.82 351.25L3406.82 271.25zM3545.38 591.25L3614.67 631.25L3614.67 711.25L3545.38 751.25L3476.1 711.25L3476.1 631.25zM3476.1 1431.25L3545.38 1471.25L3545.38 1551.25L3476.1 1591.25L3406.82 1551.25L3406.82 1471.25zM3476.1 2151.25L3545.38 2191.25L3545.38 2271.25L3476.1 2311.25L3406.82 2271.25L3406.82 2191.25zM3614.67 471.25L3683.95 511.25L3683.95 591.25L3614.67 631.25L3545.38 591.25L3545.38 511.25zM3614.67 1431.25L3683.95 1471.25L3683.95 1551.25L3614.67 1591.25L3545.38 1551.25L3545.38 1471.25zM3683.95 1551.25L3753.24 1591.25L3753.24 1671.25L3683.95 1711.25L3614.67 1671.25L3614.67 1591.25zM3683.95 1791.25L3753.24 1831.25L3753.24 1911.25L3683.95 1951.25L3614.67 1911.25L3614.67 1831.25zM3683.95 2031.25L3753.24 2071.25L3753.24 2151.25L3683.95 2191.25L3614.67 2151.25L3614.67 2071.25zM3822.52 351.25L3891.8 391.25L3891.8 471.25L3822.52 511.25L3753.24 471.25L3753.24 391.25zM3822.52 1311.25L3891.8 1351.25L3891.8 1431.25L3822.52 1471.25L3753.24 1431.25L3753.24 1351.25zM3753.24 1671.25L3822.52 1711.25L3822.52 1791.25L3753.24 1831.25L3683.95 1791.25L3683.95 1711.25zM3822.52 1791.25L3891.8 1831.25L3891.8 1911.25L3822.52 1951.25L3753.24 1911.25L3753.24 1831.25zM3753.24 2151.25L3822.52 2191.25L3822.52 2271.25L3753.24 2311.25L3683.95 2271.25L3683.95 2191.25z" stroke="#03305d" stroke-width="2"></path><path d="M3.9 471.25 a8 8 0 1 0 16 0 a8 8 0 1 0 -16 0zM73.18 511.25 a8 8 0 1 0 16 0 a8 8 0 1 0 -16 0zM73.18 591.25 a8 8 0 1 0 16 0 a8 8 0 1 0 -16 0zM3.9 631.25 a8 8 0 1 0 16 0 a8 8 0 1 0 -16 0zM-65.38 591.25 a8 8 0 1 0 16 0 a8 8 0 1 0 -16 0zM-65.38 511.25 a8 8 0 1 0 16 0 a8 8 0 1 0 -16 0zM142.47 631.25 a8 8 0 1 0 16 0 a8 8 0 1 0 -16 0zM142.47 711.25 a8 8 0 1 0 16 0 a8 8 0 1 0 -16 0zM73.18 751.25 a8 8 0 1 0 16 0 a8 8 0 1 0 -16 0zM3.9 711.25 a8 8 0 1 0 16 0 a8 8 0 1 0 -16 0zM73.18 831.25 a8 8 0 1 0 16 0 a8 8 0 1 0 -16 0zM3.9 871.25 a8 8 0 1 0 16 0 a8 8 0 1 0 -16 0zM-65.38 831.25 a8 8 0 1 0 16 0 a8 8 0 1 0 -16 0zM-65.38 751.25 a8 8 0 1 0 16 0 a8 8 0 1 0 -16 0zM142.47 871.25 a8 8 0 1 0 16 0 a8 8 0 1 0 -16 0zM142.47 951.25 a8 8 0 1 0 16 0 a8 8 0 1 0 -16 0zM73.18 991.25 a8 8 0 1 0 16 0 a8 8 0 1 0 -16 0zM3.9 951.25 a8 8 0 1 0 16 0 a8 8 0 1 0 -16 0zM73.18 1311.25 a8 8 0 1 0 16 0 a8 8 0 1 0 -16 0zM142.47 1351.25 a8 8 0 1 0 16 0 a8 8 0 1 0 -16 0zM142.47 1431.25 a8 8 0 1 0 16 0 a8 8 0 1 0 -16 0zM73.18 1471.25 a8 8 0 1 0 16 0 a8 8 0 1 0 -16 0zM3.9 1431.25 a8 8 0 1 0 16 0 a8 8 0 1 0 -16 0zM3.9 1351.25 a8 8 0 1 0 16 0 a8 8 0 1 0 -16 0zM3.9 1911.25 a8 8 0 1 0 16 0 a8 8 0 1 0 -16 0zM73.18 1951.25 a8 8 0 1 0 16 0 a8 8 0 1 0 -16 0zM73.18 2031.25 a8 8 0 1 0 16 0 a8 8 0 1 0 -16 0zM3.9 2071.25 a8 8 0 1 0 16 0 a8 8 0 1 0 -16 0zM-65.38 2031.25 a8 8 0 1 0 16 0 a8 8 0 1 0 -16 0zM-65.38 1951.25 a8 8 0 1 0 16 0 a8 8 0 1 0 -16 0zM142.47 -8.75 a8 8 0 1 0 16 0 a8 8 0 1 0 -16 0zM211.75 31.25 a8 8 0 1 0 16 0 a8 8 0 1 0 -16 0zM211.75 111.25 a8 8 0 1 0 16 0 a8 8 0 1 0 -16 0zM142.47 151.25 a8 8 0 1 0 16 0 a8 8 0 1 0 -16 0zM73.18 111.25 a8 8 0 1 0 16 0 a8 8 0 1 0 -16 0zM73.18 31.25 a8 8 0 1 0 16 0 a8 8 0 1 0 -16 0zM211.75 1791.25 a8 8 0 1 0 16 0 a8 8 0 1 0 -16 0zM281.04 1831.25 a8 8 0 1 0 16 0 a8 8 0 1 0 -16 0zM281.04 1911.25 a8 8 0 1 0 16 0 a8 8 0 1 0 -16 0zM211.75 1951.25 a8 8 0 1 0 16 0 a8 8 0 1 0 -16 0zM142.47 1911.25 a8 8 0 1 0 16 0 a8 8 0 1 0 -16 0zM142.47 1831.25 a8 8 0 1 0 16 0 a8 8 0 1 0 -16 0zM211.75 2031.25 a8 8 0 1 0 16 0 a8 8 0 1 0 -16 0zM281.04 2071.25 a8 8 0 1 0 16 0 a8 8 0 1 0 -16 0zM281.04 2151.25 a8 8 0 1 0 16 0 a8 8 0 1 0 -16 0zM211.75 2191.25 a8 8 0 1 0 16 0 a8 8 0 1 0 -16 0zM142.47 2151.25 a8 8 0 1 0 16 0 a8 8 0 1 0 -16 0zM142.47 2071.25 a8 8 0 1 0 16 0 a8 8 0 1 0 -16 0zM211.75 2271.25 a8 8 0 1 0 16 0 a8 8 0 1 0 -16 0zM142.47 2311.25 a8 8 0 1 0 16 0 a8 8 0 1 0 -16 0zM73.18 2271.25 a8 8 0 1 0 16 0 a8 8 0 1 0 -16 0zM73.18 2191.25 a8 8 0 1 0 16 0 a8 8 0 1 0 -16 0zM281.04 -8.75 a8 8 0 1 0 16 0 a8 8 0 1 0 -16 0zM350.32 31.25 a8 8 0 1 0 16 0 a8 8 0 1 0 -16 0zM350.32 111.25 a8 8 0 1 0 16 0 a8 8 0 1 0 -16 0zM281.04 151.25 a8 8 0 1 0 16 0 a8 8 0 1 0 -16 0zM281.04 231.25 a8 8 0 1 0 16 0 a8 8 0 1 0 -16 0zM350.32 271.25 a8 8 0 1 0 16 0 a8 8 0 1 0 -16 0zM350.32 351.25 a8 8 0 1 0 16 0 a8 8 0 1 0 -16 0zM281.04 391.25 a8 8 0 1 0 16 0 a8 8 0 1 0 -16 0zM211.75 351.25 a8 8 0 1 0 16 0 a8 8 0 1 0 -16 0zM211.75 271.25 a8 8 0 1 0 16 0 a8 8 0 1 0 -16 0zM419.6 391.25 a8 8 0 1 0 16 0 a8 8 0 1 0 -16 0zM419.6 471.25 a8 8 0 1 0 16 0 a8 8 0 1 0 -16 0zM350.32 511.25 a8 8 0 1 0 16 0 a8 8 0 1 0 -16 0zM281.04 471.25 a8 8 0 1 0 16 0 a8 8 0 1 0 -16 0zM350.32 591.25 a8 8 0 1 0 16 0 a8 8 0 1 0 -16 0zM281.04 631.25 a8 8 0 1 0 16 0 a8 8 0 1 0 -16 0zM211.75 591.25 a8 8 0 1 0 16 0 a8 8 0 1 0 -16 0zM211.75 511.25 a8 8 0 1 0 16 0 a8 8 0 1 0 -16 0zM419.6 631.25 a8 8 0 1 0 16 0 a8 8 0 1 0 -16 0zM419.6 711.25 a8 8 0 1 0 16 0 a8 8 0 1 0 -16 0zM350.32 751.25 a8 8 0 1 0 16 0 a8 8 0 1 0 -16 0zM281.04 711.25 a8 8 0 1 0 16 0 a8 8 0 1 0 -16 0zM350.32 831.25 a8 8 0 1 0 16 0 a8 8 0 1 0 -16 0zM281.04 871.25 a8 8 0 1 0 16 0 a8 8 0 1 0 -16 0zM211.75 831.25 a8 8 0 1 0 16 0 a8 8 0 1 0 -16 0zM211.75 751.25 a8 8 0 1 0 16 0 a8 8 0 1 0 -16 0zM350.32 1551.25 a8 8 0 1 0 16 0 a8 8 0 1 0 -16 0zM419.6 1591.25 a8 8 0 1 0 16 0 a8 8 0 1 0 -16 0zM419.6 1671.25 a8 8 0 1 0 16 0 a8 8 0 1 0 -16 0zM350.32 1711.25 a8 8 0 1 0 16 0 a8 8 0 1 0 -16 0zM281.04 1671.25 a8 8 0 1 0 16 0 a8 8 0 1 0 -16 0zM281.04 1591.25 a8 8 0 1 0 16 0 a8 8 0 1 0 -16 0zM350.32 2031.25 a8 8 0 1 0 16 0 a8 8 0 1 0 -16 0zM419.6 2071.25 a8 8 0 1 0 16 0 a8 8 0 1 0 -16 0zM419.6 2151.25 a8 8 0 1 0 16 0 a8 8 0 1 0 -16 0zM350.32 2191.25 a8 8 0 1 0 16 0 a8 8 0 1 0 -16 0zM350.32 2271.25 a8 8 0 1 0 16 0 a8 8 0 1 0 -16 0zM281.04 2311.25 a8 8 0 1 0 16 0 a8 8 0 1 0 -16 0zM419.6 231.25 a8 8 0 1 0 16 0 a8 8 0 1 0 -16 0zM488.89 271.25 a8 8 0 1 0 16 0 a8 8 0 1 0 -16 0zM488.89 351.25 a8 8 0 1 0 16 0 a8 8 0 1 0 -16 0zM558.17 391.25 a8 8 0 1 0 16 0 a8 8 0 1 0 -16 0zM558.17 471.25 a8 8 0 1 0 16 0 a8 8 0 1 0 -16 0zM488.89 511.25 a8 8 0 1 0 16 0 a8 8 0 1 0 -16 0zM488.89 831.25 a8 8 0 1 0 16 0 a8 8 0 1 0 -16 0zM558.17 871.25 a8 8 0 1 0 16 0 a8 8 0 1 0 -16 0zM558.17 951.25 a8 8 0 1 0 16 0 a8 8 0 1 0 -16 0zM488.89 991.25 a8 8 0 1 0 16 0 a8 8 0 1 0 -16 0zM419.6 951.25 a8 8 0 1 0 16 0 a8 8 0 1 0 -16 0zM419.6 871.25 a8 8 0 1 0 16 0 a8 8 0 1 0 -16 0zM419.6 1191.25 a8 8 0 1 0 16 0 a8 8 0 1 0 -16 0zM488.89 1231.25 a8 8 0 1 0 16 0 a8 8 0 1 0 -16 0zM488.89 1311.25 a8 8 0 1 0 16 0 a8 8 0 1 0 -16 0zM419.6 1351.25 a8 8 0 1 0 16 0 a8 8 0 1 0 -16 0zM350.32 1311.25 a8 8 0 1 0 16 0 a8 8 0 1 0 -16 0zM350.32 1231.25 a8 8 0 1 0 16 0 a8 8 0 1 0 -16 0zM627.46 351.25 a8 8 0 1 0 16 0 a8 8 0 1 0 -16 0zM696.74 391.25 a8 8 0 1 0 16 0 a8 8 0 1 0 -16 0zM696.74 471.25 a8 8 0 1 0 16 0 a8 8 0 1 0 -16 0zM627.46 511.25 a8 8 0 1 0 16 0 a8 8 0 1 0 -16 0zM627.46 831.25 a8 8 0 1 0 16 0 a8 8 0 1 0 -16 0zM696.74 871.25 a8 8 0 1 0 16 0 a8 8 0 1 0 -16 0zM696.74 951.25 a8 8 0 1 0 16 0 a8 8 0 1 0 -16 0zM627.46 991.25 a8 8 0 1 0 16 0 a8 8 0 1 0 -16 0zM627.46 1311.25 a8 8 0 1 0 16 0 a8 8 0 1 0 -16 0zM696.74 1351.25 a8 8 0 1 0 16 0 a8 8 0 1 0 -16 0zM696.74 1431.25 a8 8 0 1 0 16 0 a8 8 0 1 0 -16 0zM627.46 1471.25 a8 8 0 1 0 16 0 a8 8 0 1 0 -16 0zM558.17 1431.25 a8 8 0 1 0 16 0 a8 8 0 1 0 -16 0zM558.17 1351.25 a8 8 0 1 0 16 0 a8 8 0 1 0 -16 0zM627.46 1551.25 a8 8 0 1 0 16 0 a8 8 0 1 0 -16 0zM558.17 1591.25 a8 8 0 1 0 16 0 a8 8 0 1 0 -16 0zM488.89 1551.25 a8 8 0 1 0 16 0 a8 8 0 1 0 -16 0zM488.89 1471.25 a8 8 0 1 0 16 0 a8 8 0 1 0 -16 0zM696.74 1591.25 a8 8 0 1 0 16 0 a8 8 0 1 0 -16 0zM696.74 1671.25 a8 8 0 1 0 16 0 a8 8 0 1 0 -16 0zM627.46 1711.25 a8 8 0 1 0 16 0 a8 8 0 1 0 -16 0zM558.17 1671.25 a8 8 0 1 0 16 0 a8 8 0 1 0 -16 0zM627.46 1791.25 a8 8 0 1 0 16 0 a8 8 0 1 0 -16 0zM558.17 1831.25 a8 8 0 1 0 16 0 a8 8 0 1 0 -16 0zM488.89 1791.25 a8 8 0 1 0 16 0 a8 8 0 1 0 -16 0zM488.89 1711.25 a8 8 0 1 0 16 0 a8 8 0 1 0 -16 0zM627.46 2031.25 a8 8 0 1 0 16 0 a8 8 0 1 0 -16 0zM696.74 2071.25 a8 8 0 1 0 16 0 a8 8 0 1 0 -16 0zM696.74 2151.25 a8 8 0 1 0 16 0 a8 8 0 1 0 -16 0zM627.46 2191.25 a8 8 0 1 0 16 0 a8 8 0 1 0 -16 0zM558.17 2151.25 a8 8 0 1 0 16 0 a8 8 0 1 0 -16 0zM558.17 2071.25 a8 8 0 1 0 16 0 a8 8 0 1 0 -16 0zM766.02 111.25 a8 8 0 1 0 16 0 a8 8 0 1 0 -16 0zM835.31 151.25 a8 8 0 1 0 16 0 a8 8 0 1 0 -16 0zM835.31 231.25 a8 8 0 1 0 16 0 a8 8 0 1 0 -16 0zM766.02 271.25 a8 8 0 1 0 16 0 a8 8 0 1 0 -16 0zM696.74 231.25 a8 8 0 1 0 16 0 a8 8 0 1 0 -16 0zM696.74 151.25 a8 8 0 1 0 16 0 a8 8 0 1 0 -16 0zM766.02 351.25 a8 8 0 1 0 16 0 a8 8 0 1 0 -16 0zM627.46 271.25 a8 8 0 1 0 16 0 a8 8 0 1 0 -16 0zM766.02 591.25 a8 8 0 1 0 16 0 a8 8 0 1 0 -16 0zM835.31 631.25 a8 8 0 1 0 16 0 a8 8 0 1 0 -16 0zM835.31 711.25 a8 8 0 1 0 16 0 a8 8 0 1 0 -16 0zM766.02 751.25 a8 8 0 1 0 16 0 a8 8 0 1 0 -16 0zM696.74 711.25 a8 8 0 1 0 16 0 a8 8 0 1 0 -16 0zM696.74 631.25 a8 8 0 1 0 16 0 a8 8 0 1 0 -16 0zM766.02 831.25 a8 8 0 1 0 16 0 a8 8 0 1 0 -16 0zM835.31 871.25 a8 8 0 1 0 16 0 a8 8 0 1 0 -16 0zM835.31 951.25 a8 8 0 1 0 16 0 a8 8 0 1 0 -16 0zM766.02 991.25 a8 8 0 1 0 16 0 a8 8 0 1 0 -16 0zM766.02 1551.25 a8 8 0 1 0 16 0 a8 8 0 1 0 -16 0zM835.31 1591.25 a8 8 0 1 0 16 0 a8 8 0 1 0 -16 0zM835.31 1671.25 a8 8 0 1 0 16 0 a8 8 0 1 0 -16 0zM766.02 1711.25 a8 8 0 1 0 16 0 a8 8 0 1 0 -16 0zM835.31 -8.75 a8 8 0 1 0 16 0 a8 8 0 1 0 -16 0zM904.59 31.25 a8 8 0 1 0 16 0 a8 8 0 1 0 -16 0zM904.59 111.25 a8 8 0 1 0 16 0 a8 8 0 1 0 -16 0zM766.02 31.25 a8 8 0 1 0 16 0 a8 8 0 1 0 -16 0zM835.31 471.25 a8 8 0 1 0 16 0 a8 8 0 1 0 -16 0zM904.59 511.25 a8 8 0 1 0 16 0 a8 8 0 1 0 -16 0zM904.59 591.25 a8 8 0 1 0 16 0 a8 8 0 1 0 -16 0zM766.02 511.25 a8 8 0 1 0 16 0 a8 8 0 1 0 -16 0zM904.59 831.25 a8 8 0 1 0 16 0 a8 8 0 1 0 -16 0zM973.88 871.25 a8 8 0 1 0 16 0 a8 8 0 1 0 -16 0zM973.88 951.25 a8 8 0 1 0 16 0 a8 8 0 1 0 -16 0zM904.59 991.25 a8 8 0 1 0 16 0 a8 8 0 1 0 -16 0zM904.59 1071.25 a8 8 0 1 0 16 0 a8 8 0 1 0 -16 0zM973.88 1111.25 a8 8 0 1 0 16 0 a8 8 0 1 0 -16 0zM973.88 1191.25 a8 8 0 1 0 16 0 a8 8 0 1 0 -16 0zM904.59 1231.25 a8 8 0 1 0 16 0 a8 8 0 1 0 -16 0zM835.31 1191.25 a8 8 0 1 0 16 0 a8 8 0 1 0 -16 0zM835.31 1111.25 a8 8 0 1 0 16 0 a8 8 0 1 0 -16 0zM904.59 1791.25 a8 8 0 1 0 16 0 a8 8 0 1 0 -16 0zM973.88 1831.25 a8 8 0 1 0 16 0 a8 8 0 1 0 -16 0zM973.88 1911.25 a8 8 0 1 0 16 0 a8 8 0 1 0 -16 0zM904.59 1951.25 a8 8 0 1 0 16 0 a8 8 0 1 0 -16 0zM835.31 1911.25 a8 8 0 1 0 16 0 a8 8 0 1 0 -16 0zM835.31 1831.25 a8 8 0 1 0 16 0 a8 8 0 1 0 -16 0zM1043.16 111.25 a8 8 0 1 0 16 0 a8 8 0 1 0 -16 0zM1112.44 151.25 a8 8 0 1 0 16 0 a8 8 0 1 0 -16 0zM1112.44 231.25 a8 8 0 1 0 16 0 a8 8 0 1 0 -16 0zM1043.16 271.25 a8 8 0 1 0 16 0 a8 8 0 1 0 -16 0zM973.88 231.25 a8 8 0 1 0 16 0 a8 8 0 1 0 -16 0zM973.88 151.25 a8 8 0 1 0 16 0 a8 8 0 1 0 -16 0zM1043.16 351.25 a8 8 0 1 0 16 0 a8 8 0 1 0 -16 0zM973.88 391.25 a8 8 0 1 0 16 0 a8 8 0 1 0 -16 0zM904.59 351.25 a8 8 0 1 0 16 0 a8 8 0 1 0 -16 0zM904.59 271.25 a8 8 0 1 0 16 0 a8 8 0 1 0 -16 0zM1112.44 391.25 a8 8 0 1 0 16 0 a8 8 0 1 0 -16 0zM1112.44 471.25 a8 8 0 1 0 16 0 a8 8 0 1 0 -16 0zM1043.16 511.25 a8 8 0 1 0 16 0 a8 8 0 1 0 -16 0zM973.88 471.25 a8 8 0 1 0 16 0 a8 8 0 1 0 -16 0zM973.88 711.25 a8 8 0 1 0 16 0 a8 8 0 1 0 -16 0zM1043.16 751.25 a8 8 0 1 0 16 0 a8 8 0 1 0 -16 0zM1043.16 831.25 a8 8 0 1 0 16 0 a8 8 0 1 0 -16 0zM904.59 751.25 a8 8 0 1 0 16 0 a8 8 0 1 0 -16 0zM1112.44 871.25 a8 8 0 1 0 16 0 a8 8 0 1 0 -16 0zM1112.44 951.25 a8 8 0 1 0 16 0 a8 8 0 1 0 -16 0zM1043.16 991.25 a8 8 0 1 0 16 0 a8 8 0 1 0 -16 0zM973.88 1431.25 a8 8 0 1 0 16 0 a8 8 0 1 0 -16 0zM1043.16 1471.25 a8 8 0 1 0 16 0 a8 8 0 1 0 -16 0zM1043.16 1551.25 a8 8 0 1 0 16 0 a8 8 0 1 0 -16 0zM973.88 1591.25 a8 8 0 1 0 16 0 a8 8 0 1 0 -16 0zM904.59 1551.25 a8 8 0 1 0 16 0 a8 8 0 1 0 -16 0zM904.59 1471.25 a8 8 0 1 0 16 0 a8 8 0 1 0 -16 0zM1043.16 2031.25 a8 8 0 1 0 16 0 a8 8 0 1 0 -16 0zM1112.44 2071.25 a8 8 0 1 0 16 0 a8 8 0 1 0 -16 0zM1112.44 2151.25 a8 8 0 1 0 16 0 a8 8 0 1 0 -16 0zM1043.16 2191.25 a8 8 0 1 0 16 0 a8 8 0 1 0 -16 0zM973.88 2151.25 a8 8 0 1 0 16 0 a8 8 0 1 0 -16 0zM973.88 2071.25 a8 8 0 1 0 16 0 a8 8 0 1 0 -16 0zM1112.44 -8.75 a8 8 0 1 0 16 0 a8 8 0 1 0 -16 0zM1181.73 31.25 a8 8 0 1 0 16 0 a8 8 0 1 0 -16 0zM1181.73 111.25 a8 8 0 1 0 16 0 a8 8 0 1 0 -16 0zM1043.16 31.25 a8 8 0 1 0 16 0 a8 8 0 1 0 -16 0zM1181.73 271.25 a8 8 0 1 0 16 0 a8 8 0 1 0 -16 0zM1181.73 351.25 a8 8 0 1 0 16 0 a8 8 0 1 0 -16 0zM1181.73 1071.25 a8 8 0 1 0 16 0 a8 8 0 1 0 -16 0zM1251.01 1111.25 a8 8 0 1 0 16 0 a8 8 0 1 0 -16 0zM1251.01 1191.25 a8 8 0 1 0 16 0 a8 8 0 1 0 -16 0zM1181.73 1231.25 a8 8 0 1 0 16 0 a8 8 0 1 0 -16 0zM1112.44 1191.25 a8 8 0 1 0 16 0 a8 8 0 1 0 -16 0zM1112.44 1111.25 a8 8 0 1 0 16 0 a8 8 0 1 0 -16 0zM1112.44 1431.25 a8 8 0 1 0 16 0 a8 8 0 1 0 -16 0zM1181.73 1471.25 a8 8 0 1 0 16 0 a8 8 0 1 0 -16 0zM1181.73 1551.25 a8 8 0 1 0 16 0 a8 8 0 1 0 -16 0zM1112.44 1591.25 a8 8 0 1 0 16 0 a8 8 0 1 0 -16 0zM1112.44 1671.25 a8 8 0 1 0 16 0 a8 8 0 1 0 -16 0zM1181.73 1711.25 a8 8 0 1 0 16 0 a8 8 0 1 0 -16 0zM1181.73 1791.25 a8 8 0 1 0 16 0 a8 8 0 1 0 -16 0zM1112.44 1831.25 a8 8 0 1 0 16 0 a8 8 0 1 0 -16 0zM1043.16 1791.25 a8 8 0 1 0 16 0 a8 8 0 1 0 -16 0zM1043.16 1711.25 a8 8 0 1 0 16 0 a8 8 0 1 0 -16 0zM1251.01 -8.75 a8 8 0 1 0 16 0 a8 8 0 1 0 -16 0zM1320.3 31.25 a8 8 0 1 0 16 0 a8 8 0 1 0 -16 0zM1320.3 111.25 a8 8 0 1 0 16 0 a8 8 0 1 0 -16 0zM1251.01 151.25 a8 8 0 1 0 16 0 a8 8 0 1 0 -16 0zM1251.01 231.25 a8 8 0 1 0 16 0 a8 8 0 1 0 -16 0zM1320.3 271.25 a8 8 0 1 0 16 0 a8 8 0 1 0 -16 0zM1320.3 351.25 a8 8 0 1 0 16 0 a8 8 0 1 0 -16 0zM1251.01 391.25 a8 8 0 1 0 16 0 a8 8 0 1 0 -16 0zM1251.01 471.25 a8 8 0 1 0 16 0 a8 8 0 1 0 -16 0zM1320.3 511.25 a8 8 0 1 0 16 0 a8 8 0 1 0 -16 0zM1320.3 591.25 a8 8 0 1 0 16 0 a8 8 0 1 0 -16 0zM1251.01 631.25 a8 8 0 1 0 16 0 a8 8 0 1 0 -16 0zM1181.73 591.25 a8 8 0 1 0 16 0 a8 8 0 1 0 -16 0zM1181.73 511.25 a8 8 0 1 0 16 0 a8 8 0 1 0 -16 0zM1251.01 711.25 a8 8 0 1 0 16 0 a8 8 0 1 0 -16 0zM1320.3 751.25 a8 8 0 1 0 16 0 a8 8 0 1 0 -16 0zM1320.3 831.25 a8 8 0 1 0 16 0 a8 8 0 1 0 -16 0zM1251.01 871.25 a8 8 0 1 0 16 0 a8 8 0 1 0 -16 0zM1181.73 831.25 a8 8 0 1 0 16 0 a8 8 0 1 0 -16 0zM1181.73 751.25 a8 8 0 1 0 16 0 a8 8 0 1 0 -16 0zM1389.58 871.25 a8 8 0 1 0 16 0 a8 8 0 1 0 -16 0zM1389.58 951.25 a8 8 0 1 0 16 0 a8 8 0 1 0 -16 0zM1320.3 991.25 a8 8 0 1 0 16 0 a8 8 0 1 0 -16 0zM1251.01 951.25 a8 8 0 1 0 16 0 a8 8 0 1 0 -16 0zM1320.3 1071.25 a8 8 0 1 0 16 0 a8 8 0 1 0 -16 0zM1181.73 991.25 a8 8 0 1 0 16 0 a8 8 0 1 0 -16 0zM1389.58 1111.25 a8 8 0 1 0 16 0 a8 8 0 1 0 -16 0zM1389.58 1191.25 a8 8 0 1 0 16 0 a8 8 0 1 0 -16 0zM1320.3 1231.25 a8 8 0 1 0 16 0 a8 8 0 1 0 -16 0zM1320.3 1791.25 a8 8 0 1 0 16 0 a8 8 0 1 0 -16 0zM1389.58 1831.25 a8 8 0 1 0 16 0 a8 8 0 1 0 -16 0zM1389.58 1911.25 a8 8 0 1 0 16 0 a8 8 0 1 0 -16 0zM1320.3 1951.25 a8 8 0 1 0 16 0 a8 8 0 1 0 -16 0zM1251.01 1911.25 a8 8 0 1 0 16 0 a8 8 0 1 0 -16 0zM1251.01 1831.25 a8 8 0 1 0 16 0 a8 8 0 1 0 -16 0zM1389.58 -8.75 a8 8 0 1 0 16 0 a8 8 0 1 0 -16 0zM1458.86 31.25 a8 8 0 1 0 16 0 a8 8 0 1 0 -16 0zM1458.86 111.25 a8 8 0 1 0 16 0 a8 8 0 1 0 -16 0zM1389.58 151.25 a8 8 0 1 0 16 0 a8 8 0 1 0 -16 0zM1528.15 151.25 a8 8 0 1 0 16 0 a8 8 0 1 0 -16 0zM1528.15 231.25 a8 8 0 1 0 16 0 a8 8 0 1 0 -16 0zM1458.86 271.25 a8 8 0 1 0 16 0 a8 8 0 1 0 -16 0zM1389.58 231.25 a8 8 0 1 0 16 0 a8 8 0 1 0 -16 0zM1458.86 591.25 a8 8 0 1 0 16 0 a8 8 0 1 0 -16 0zM1528.15 631.25 a8 8 0 1 0 16 0 a8 8 0 1 0 -16 0zM1528.15 711.25 a8 8 0 1 0 16 0 a8 8 0 1 0 -16 0zM1458.86 751.25 a8 8 0 1 0 16 0 a8 8 0 1 0 -16 0zM1389.58 711.25 a8 8 0 1 0 16 0 a8 8 0 1 0 -16 0zM1389.58 631.25 a8 8 0 1 0 16 0 a8 8 0 1 0 -16 0zM1458.86 831.25 a8 8 0 1 0 16 0 a8 8 0 1 0 -16 0zM1528.15 871.25 a8 8 0 1 0 16 0 a8 8 0 1 0 -16 0zM1528.15 951.25 a8 8 0 1 0 16 0 a8 8 0 1 0 -16 0zM1458.86 991.25 a8 8 0 1 0 16 0 a8 8 0 1 0 -16 0zM1458.86 1071.25 a8 8 0 1 0 16 0 a8 8 0 1 0 -16 0zM1389.58 1431.25 a8 8 0 1 0 16 0 a8 8 0 1 0 -16 0zM1458.86 1471.25 a8 8 0 1 0 16 0 a8 8 0 1 0 -16 0zM1458.86 1551.25 a8 8 0 1 0 16 0 a8 8 0 1 0 -16 0zM1389.58 1591.25 a8 8 0 1 0 16 0 a8 8 0 1 0 -16 0zM1320.3 1551.25 a8 8 0 1 0 16 0 a8 8 0 1 0 -16 0zM1320.3 1471.25 a8 8 0 1 0 16 0 a8 8 0 1 0 -16 0zM1528.15 1591.25 a8 8 0 1 0 16 0 a8 8 0 1 0 -16 0zM1528.15 1671.25 a8 8 0 1 0 16 0 a8 8 0 1 0 -16 0zM1458.86 1711.25 a8 8 0 1 0 16 0 a8 8 0 1 0 -16 0zM1389.58 1671.25 a8 8 0 1 0 16 0 a8 8 0 1 0 -16 0zM1458.86 2031.25 a8 8 0 1 0 16 0 a8 8 0 1 0 -16 0zM1528.15 2071.25 a8 8 0 1 0 16 0 a8 8 0 1 0 -16 0zM1528.15 2151.25 a8 8 0 1 0 16 0 a8 8 0 1 0 -16 0zM1458.86 2191.25 a8 8 0 1 0 16 0 a8 8 0 1 0 -16 0zM1389.58 2151.25 a8 8 0 1 0 16 0 a8 8 0 1 0 -16 0zM1389.58 2071.25 a8 8 0 1 0 16 0 a8 8 0 1 0 -16 0zM1528.15 -8.75 a8 8 0 1 0 16 0 a8 8 0 1 0 -16 0zM1597.43 31.25 a8 8 0 1 0 16 0 a8 8 0 1 0 -16 0zM1597.43 111.25 a8 8 0 1 0 16 0 a8 8 0 1 0 -16 0zM1597.43 351.25 a8 8 0 1 0 16 0 a8 8 0 1 0 -16 0zM1666.72 391.25 a8 8 0 1 0 16 0 a8 8 0 1 0 -16 0zM1666.72 471.25 a8 8 0 1 0 16 0 a8 8 0 1 0 -16 0zM1597.43 511.25 a8 8 0 1 0 16 0 a8 8 0 1 0 -16 0zM1528.15 471.25 a8 8 0 1 0 16 0 a8 8 0 1 0 -16 0zM1528.15 391.25 a8 8 0 1 0 16 0 a8 8 0 1 0 -16 0zM1597.43 831.25 a8 8 0 1 0 16 0 a8 8 0 1 0 -16 0zM1666.72 871.25 a8 8 0 1 0 16 0 a8 8 0 1 0 -16 0zM1666.72 951.25 a8 8 0 1 0 16 0 a8 8 0 1 0 -16 0zM1597.43 991.25 a8 8 0 1 0 16 0 a8 8 0 1 0 -16 0zM1597.43 1071.25 a8 8 0 1 0 16 0 a8 8 0 1 0 -16 0zM1528.15 1111.25 a8 8 0 1 0 16 0 a8 8 0 1 0 -16 0zM1666.72 1111.25 a8 8 0 1 0 16 0 a8 8 0 1 0 -16 0zM1666.72 1191.25 a8 8 0 1 0 16 0 a8 8 0 1 0 -16 0zM1597.43 1231.25 a8 8 0 1 0 16 0 a8 8 0 1 0 -16 0zM1528.15 1191.25 a8 8 0 1 0 16 0 a8 8 0 1 0 -16 0zM1597.43 1311.25 a8 8 0 1 0 16 0 a8 8 0 1 0 -16 0zM1528.15 1351.25 a8 8 0 1 0 16 0 a8 8 0 1 0 -16 0zM1458.86 1311.25 a8 8 0 1 0 16 0 a8 8 0 1 0 -16 0zM1458.86 1231.25 a8 8 0 1 0 16 0 a8 8 0 1 0 -16 0zM1666.72 1351.25 a8 8 0 1 0 16 0 a8 8 0 1 0 -16 0zM1666.72 1431.25 a8 8 0 1 0 16 0 a8 8 0 1 0 -16 0zM1597.43 1471.25 a8 8 0 1 0 16 0 a8 8 0 1 0 -16 0zM1528.15 1431.25 a8 8 0 1 0 16 0 a8 8 0 1 0 -16 0zM1597.43 1711.25 a8 8 0 1 0 16 0 a8 8 0 1 0 -16 0zM1597.43 1791.25 a8 8 0 1 0 16 0 a8 8 0 1 0 -16 0zM1528.15 1831.25 a8 8 0 1 0 16 0 a8 8 0 1 0 -16 0zM1458.86 1791.25 a8 8 0 1 0 16 0 a8 8 0 1 0 -16 0zM1528.15 1911.25 a8 8 0 1 0 16 0 a8 8 0 1 0 -16 0zM1597.43 1951.25 a8 8 0 1 0 16 0 a8 8 0 1 0 -16 0zM1597.43 2031.25 a8 8 0 1 0 16 0 a8 8 0 1 0 -16 0zM1458.86 1951.25 a8 8 0 1 0 16 0 a8 8 0 1 0 -16 0zM1666.72 -8.75 a8 8 0 1 0 16 0 a8 8 0 1 0 -16 0zM1736 31.25 a8 8 0 1 0 16 0 a8 8 0 1 0 -16 0zM1736 111.25 a8 8 0 1 0 16 0 a8 8 0 1 0 -16 0zM1666.72 151.25 a8 8 0 1 0 16 0 a8 8 0 1 0 -16 0zM1666.72 231.25 a8 8 0 1 0 16 0 a8 8 0 1 0 -16 0zM1736 271.25 a8 8 0 1 0 16 0 a8 8 0 1 0 -16 0zM1736 351.25 a8 8 0 1 0 16 0 a8 8 0 1 0 -16 0zM1597.43 271.25 a8 8 0 1 0 16 0 a8 8 0 1 0 -16 0zM1736 511.25 a8 8 0 1 0 16 0 a8 8 0 1 0 -16 0zM1736 591.25 a8 8 0 1 0 16 0 a8 8 0 1 0 -16 0zM1666.72 631.25 a8 8 0 1 0 16 0 a8 8 0 1 0 -16 0zM1597.43 591.25 a8 8 0 1 0 16 0 a8 8 0 1 0 -16 0zM1736 1071.25 a8 8 0 1 0 16 0 a8 8 0 1 0 -16 0zM1805.28 1111.25 a8 8 0 1 0 16 0 a8 8 0 1 0 -16 0zM1805.28 1191.25 a8 8 0 1 0 16 0 a8 8 0 1 0 -16 0zM1736 1231.25 a8 8 0 1 0 16 0 a8 8 0 1 0 -16 0zM1736 1551.25 a8 8 0 1 0 16 0 a8 8 0 1 0 -16 0zM1805.28 1591.25 a8 8 0 1 0 16 0 a8 8 0 1 0 -16 0zM1805.28 1671.25 a8 8 0 1 0 16 0 a8 8 0 1 0 -16 0zM1736 1711.25 a8 8 0 1 0 16 0 a8 8 0 1 0 -16 0zM1666.72 1671.25 a8 8 0 1 0 16 0 a8 8 0 1 0 -16 0zM1666.72 1591.25 a8 8 0 1 0 16 0 a8 8 0 1 0 -16 0zM1874.57 111.25 a8 8 0 1 0 16 0 a8 8 0 1 0 -16 0zM1943.85 151.25 a8 8 0 1 0 16 0 a8 8 0 1 0 -16 0zM1943.85 231.25 a8 8 0 1 0 16 0 a8 8 0 1 0 -16 0zM1874.57 271.25 a8 8 0 1 0 16 0 a8 8 0 1 0 -16 0zM1805.28 231.25 a8 8 0 1 0 16 0 a8 8 0 1 0 -16 0zM1805.28 151.25 a8 8 0 1 0 16 0 a8 8 0 1 0 -16 0zM1874.57 831.25 a8 8 0 1 0 16 0 a8 8 0 1 0 -16 0zM1943.85 871.25 a8 8 0 1 0 16 0 a8 8 0 1 0 -16 0zM1943.85 951.25 a8 8 0 1 0 16 0 a8 8 0 1 0 -16 0zM1874.57 991.25 a8 8 0 1 0 16 0 a8 8 0 1 0 -16 0zM1805.28 951.25 a8 8 0 1 0 16 0 a8 8 0 1 0 -16 0zM1805.28 871.25 a8 8 0 1 0 16 0 a8 8 0 1 0 -16 0zM1874.57 1311.25 a8 8 0 1 0 16 0 a8 8 0 1 0 -16 0zM1943.85 1351.25 a8 8 0 1 0 16 0 a8 8 0 1 0 -16 0zM1943.85 1431.25 a8 8 0 1 0 16 0 a8 8 0 1 0 -16 0zM1874.57 1471.25 a8 8 0 1 0 16 0 a8 8 0 1 0 -16 0zM1805.28 1431.25 a8 8 0 1 0 16 0 a8 8 0 1 0 -16 0zM1805.28 1351.25 a8 8 0 1 0 16 0 a8 8 0 1 0 -16 0zM1874.57 1551.25 a8 8 0 1 0 16 0 a8 8 0 1 0 -16 0zM1943.85 1591.25 a8 8 0 1 0 16 0 a8 8 0 1 0 -16 0zM1943.85 1671.25 a8 8 0 1 0 16 0 a8 8 0 1 0 -16 0zM1874.57 1711.25 a8 8 0 1 0 16 0 a8 8 0 1 0 -16 0zM1805.28 1911.25 a8 8 0 1 0 16 0 a8 8 0 1 0 -16 0zM1874.57 1951.25 a8 8 0 1 0 16 0 a8 8 0 1 0 -16 0zM1874.57 2031.25 a8 8 0 1 0 16 0 a8 8 0 1 0 -16 0zM1805.28 2071.25 a8 8 0 1 0 16 0 a8 8 0 1 0 -16 0zM1736 2031.25 a8 8 0 1 0 16 0 a8 8 0 1 0 -16 0zM1736 1951.25 a8 8 0 1 0 16 0 a8 8 0 1 0 -16 0zM2013.14 271.25 a8 8 0 1 0 16 0 a8 8 0 1 0 -16 0zM2013.14 351.25 a8 8 0 1 0 16 0 a8 8 0 1 0 -16 0zM1943.85 391.25 a8 8 0 1 0 16 0 a8 8 0 1 0 -16 0zM1874.57 351.25 a8 8 0 1 0 16 0 a8 8 0 1 0 -16 0zM2082.42 391.25 a8 8 0 1 0 16 0 a8 8 0 1 0 -16 0zM2082.42 471.25 a8 8 0 1 0 16 0 a8 8 0 1 0 -16 0zM2013.14 511.25 a8 8 0 1 0 16 0 a8 8 0 1 0 -16 0zM1943.85 471.25 a8 8 0 1 0 16 0 a8 8 0 1 0 -16 0zM2013.14 591.25 a8 8 0 1 0 16 0 a8 8 0 1 0 -16 0zM1943.85 631.25 a8 8 0 1 0 16 0 a8 8 0 1 0 -16 0zM1874.57 591.25 a8 8 0 1 0 16 0 a8 8 0 1 0 -16 0zM1874.57 511.25 a8 8 0 1 0 16 0 a8 8 0 1 0 -16 0zM1943.85 711.25 a8 8 0 1 0 16 0 a8 8 0 1 0 -16 0zM2013.14 751.25 a8 8 0 1 0 16 0 a8 8 0 1 0 -16 0zM2013.14 831.25 a8 8 0 1 0 16 0 a8 8 0 1 0 -16 0zM1874.57 751.25 a8 8 0 1 0 16 0 a8 8 0 1 0 -16 0zM2013.14 991.25 a8 8 0 1 0 16 0 a8 8 0 1 0 -16 0zM2013.14 1071.25 a8 8 0 1 0 16 0 a8 8 0 1 0 -16 0zM1943.85 1111.25 a8 8 0 1 0 16 0 a8 8 0 1 0 -16 0zM1874.57 1071.25 a8 8 0 1 0 16 0 a8 8 0 1 0 -16 0zM2013.14 1471.25 a8 8 0 1 0 16 0 a8 8 0 1 0 -16 0zM2013.14 1551.25 a8 8 0 1 0 16 0 a8 8 0 1 0 -16 0zM2082.42 1591.25 a8 8 0 1 0 16 0 a8 8 0 1 0 -16 0zM2082.42 1671.25 a8 8 0 1 0 16 0 a8 8 0 1 0 -16 0zM2013.14 1711.25 a8 8 0 1 0 16 0 a8 8 0 1 0 -16 0zM2013.14 1791.25 a8 8 0 1 0 16 0 a8 8 0 1 0 -16 0zM2082.42 1831.25 a8 8 0 1 0 16 0 a8 8 0 1 0 -16 0zM2082.42 1911.25 a8 8 0 1 0 16 0 a8 8 0 1 0 -16 0zM2013.14 1951.25 a8 8 0 1 0 16 0 a8 8 0 1 0 -16 0zM1943.85 1911.25 a8 8 0 1 0 16 0 a8 8 0 1 0 -16 0zM1943.85 1831.25 a8 8 0 1 0 16 0 a8 8 0 1 0 -16 0zM2151.7 591.25 a8 8 0 1 0 16 0 a8 8 0 1 0 -16 0zM2220.99 631.25 a8 8 0 1 0 16 0 a8 8 0 1 0 -16 0zM2220.99 711.25 a8 8 0 1 0 16 0 a8 8 0 1 0 -16 0zM2151.7 751.25 a8 8 0 1 0 16 0 a8 8 0 1 0 -16 0zM2082.42 711.25 a8 8 0 1 0 16 0 a8 8 0 1 0 -16 0zM2082.42 631.25 a8 8 0 1 0 16 0 a8 8 0 1 0 -16 0zM2151.7 831.25 a8 8 0 1 0 16 0 a8 8 0 1 0 -16 0zM2082.42 871.25 a8 8 0 1 0 16 0 a8 8 0 1 0 -16 0zM2151.7 1071.25 a8 8 0 1 0 16 0 a8 8 0 1 0 -16 0zM2220.99 1111.25 a8 8 0 1 0 16 0 a8 8 0 1 0 -16 0zM2220.99 1191.25 a8 8 0 1 0 16 0 a8 8 0 1 0 -16 0zM2151.7 1231.25 a8 8 0 1 0 16 0 a8 8 0 1 0 -16 0zM2082.42 1191.25 a8 8 0 1 0 16 0 a8 8 0 1 0 -16 0zM2082.42 1111.25 a8 8 0 1 0 16 0 a8 8 0 1 0 -16 0zM2082.42 1431.25 a8 8 0 1 0 16 0 a8 8 0 1 0 -16 0zM2151.7 1471.25 a8 8 0 1 0 16 0 a8 8 0 1 0 -16 0zM2151.7 1551.25 a8 8 0 1 0 16 0 a8 8 0 1 0 -16 0zM2290.27 591.25 a8 8 0 1 0 16 0 a8 8 0 1 0 -16 0zM2359.56 631.25 a8 8 0 1 0 16 0 a8 8 0 1 0 -16 0zM2359.56 711.25 a8 8 0 1 0 16 0 a8 8 0 1 0 -16 0zM2290.27 751.25 a8 8 0 1 0 16 0 a8 8 0 1 0 -16 0zM2220.99 1431.25 a8 8 0 1 0 16 0 a8 8 0 1 0 -16 0zM2290.27 1471.25 a8 8 0 1 0 16 0 a8 8 0 1 0 -16 0zM2290.27 1551.25 a8 8 0 1 0 16 0 a8 8 0 1 0 -16 0zM2220.99 1591.25 a8 8 0 1 0 16 0 a8 8 0 1 0 -16 0zM2428.84 351.25 a8 8 0 1 0 16 0 a8 8 0 1 0 -16 0zM2498.12 391.25 a8 8 0 1 0 16 0 a8 8 0 1 0 -16 0zM2498.12 471.25 a8 8 0 1 0 16 0 a8 8 0 1 0 -16 0zM2428.84 511.25 a8 8 0 1 0 16 0 a8 8 0 1 0 -16 0zM2359.56 471.25 a8 8 0 1 0 16 0 a8 8 0 1 0 -16 0zM2359.56 391.25 a8 8 0 1 0 16 0 a8 8 0 1 0 -16 0zM2359.56 951.25 a8 8 0 1 0 16 0 a8 8 0 1 0 -16 0zM2428.84 991.25 a8 8 0 1 0 16 0 a8 8 0 1 0 -16 0zM2428.84 1071.25 a8 8 0 1 0 16 0 a8 8 0 1 0 -16 0zM2359.56 1111.25 a8 8 0 1 0 16 0 a8 8 0 1 0 -16 0zM2290.27 1071.25 a8 8 0 1 0 16 0 a8 8 0 1 0 -16 0zM2290.27 991.25 a8 8 0 1 0 16 0 a8 8 0 1 0 -16 0zM2359.56 2151.25 a8 8 0 1 0 16 0 a8 8 0 1 0 -16 0zM2428.84 2191.25 a8 8 0 1 0 16 0 a8 8 0 1 0 -16 0zM2428.84 2271.25 a8 8 0 1 0 16 0 a8 8 0 1 0 -16 0zM2359.56 2311.25 a8 8 0 1 0 16 0 a8 8 0 1 0 -16 0zM2290.27 2271.25 a8 8 0 1 0 16 0 a8 8 0 1 0 -16 0zM2290.27 2191.25 a8 8 0 1 0 16 0 a8 8 0 1 0 -16 0zM2567.41 591.25 a8 8 0 1 0 16 0 a8 8 0 1 0 -16 0zM2636.69 631.25 a8 8 0 1 0 16 0 a8 8 0 1 0 -16 0zM2636.69 711.25 a8 8 0 1 0 16 0 a8 8 0 1 0 -16 0zM2567.41 751.25 a8 8 0 1 0 16 0 a8 8 0 1 0 -16 0zM2498.12 711.25 a8 8 0 1 0 16 0 a8 8 0 1 0 -16 0zM2498.12 631.25 a8 8 0 1 0 16 0 a8 8 0 1 0 -16 0zM2567.41 831.25 a8 8 0 1 0 16 0 a8 8 0 1 0 -16 0zM2636.69 871.25 a8 8 0 1 0 16 0 a8 8 0 1 0 -16 0zM2636.69 951.25 a8 8 0 1 0 16 0 a8 8 0 1 0 -16 0zM2567.41 991.25 a8 8 0 1 0 16 0 a8 8 0 1 0 -16 0zM2498.12 951.25 a8 8 0 1 0 16 0 a8 8 0 1 0 -16 0zM2498.12 871.25 a8 8 0 1 0 16 0 a8 8 0 1 0 -16 0zM2567.41 1791.25 a8 8 0 1 0 16 0 a8 8 0 1 0 -16 0zM2636.69 1831.25 a8 8 0 1 0 16 0 a8 8 0 1 0 -16 0zM2636.69 1911.25 a8 8 0 1 0 16 0 a8 8 0 1 0 -16 0zM2567.41 1951.25 a8 8 0 1 0 16 0 a8 8 0 1 0 -16 0zM2498.12 1911.25 a8 8 0 1 0 16 0 a8 8 0 1 0 -16 0zM2498.12 1831.25 a8 8 0 1 0 16 0 a8 8 0 1 0 -16 0zM2636.69 -8.75 a8 8 0 1 0 16 0 a8 8 0 1 0 -16 0zM2705.98 31.25 a8 8 0 1 0 16 0 a8 8 0 1 0 -16 0zM2705.98 111.25 a8 8 0 1 0 16 0 a8 8 0 1 0 -16 0zM2636.69 151.25 a8 8 0 1 0 16 0 a8 8 0 1 0 -16 0zM2567.41 111.25 a8 8 0 1 0 16 0 a8 8 0 1 0 -16 0zM2567.41 31.25 a8 8 0 1 0 16 0 a8 8 0 1 0 -16 0zM2775.26 151.25 a8 8 0 1 0 16 0 a8 8 0 1 0 -16 0zM2775.26 231.25 a8 8 0 1 0 16 0 a8 8 0 1 0 -16 0zM2705.98 271.25 a8 8 0 1 0 16 0 a8 8 0 1 0 -16 0zM2636.69 231.25 a8 8 0 1 0 16 0 a8 8 0 1 0 -16 0zM2705.98 351.25 a8 8 0 1 0 16 0 a8 8 0 1 0 -16 0zM2636.69 391.25 a8 8 0 1 0 16 0 a8 8 0 1 0 -16 0zM2567.41 351.25 a8 8 0 1 0 16 0 a8 8 0 1 0 -16 0zM2567.41 271.25 a8 8 0 1 0 16 0 a8 8 0 1 0 -16 0zM2636.69 471.25 a8 8 0 1 0 16 0 a8 8 0 1 0 -16 0zM2705.98 511.25 a8 8 0 1 0 16 0 a8 8 0 1 0 -16 0zM2705.98 591.25 a8 8 0 1 0 16 0 a8 8 0 1 0 -16 0zM2567.41 511.25 a8 8 0 1 0 16 0 a8 8 0 1 0 -16 0zM2705.98 751.25 a8 8 0 1 0 16 0 a8 8 0 1 0 -16 0zM2705.98 831.25 a8 8 0 1 0 16 0 a8 8 0 1 0 -16 0zM2705.98 991.25 a8 8 0 1 0 16 0 a8 8 0 1 0 -16 0zM2705.98 1071.25 a8 8 0 1 0 16 0 a8 8 0 1 0 -16 0zM2636.69 1111.25 a8 8 0 1 0 16 0 a8 8 0 1 0 -16 0zM2567.41 1071.25 a8 8 0 1 0 16 0 a8 8 0 1 0 -16 0zM2705.98 2031.25 a8 8 0 1 0 16 0 a8 8 0 1 0 -16 0zM2775.26 2071.25 a8 8 0 1 0 16 0 a8 8 0 1 0 -16 0zM2775.26 2151.25 a8 8 0 1 0 16 0 a8 8 0 1 0 -16 0zM2705.98 2191.25 a8 8 0 1 0 16 0 a8 8 0 1 0 -16 0zM2636.69 2151.25 a8 8 0 1 0 16 0 a8 8 0 1 0 -16 0zM2636.69 2071.25 a8 8 0 1 0 16 0 a8 8 0 1 0 -16 0zM2844.54 351.25 a8 8 0 1 0 16 0 a8 8 0 1 0 -16 0zM2913.83 391.25 a8 8 0 1 0 16 0 a8 8 0 1 0 -16 0zM2913.83 471.25 a8 8 0 1 0 16 0 a8 8 0 1 0 -16 0zM2844.54 511.25 a8 8 0 1 0 16 0 a8 8 0 1 0 -16 0zM2775.26 471.25 a8 8 0 1 0 16 0 a8 8 0 1 0 -16 0zM2775.26 391.25 a8 8 0 1 0 16 0 a8 8 0 1 0 -16 0zM2844.54 591.25 a8 8 0 1 0 16 0 a8 8 0 1 0 -16 0zM2775.26 631.25 a8 8 0 1 0 16 0 a8 8 0 1 0 -16 0zM2913.83 631.25 a8 8 0 1 0 16 0 a8 8 0 1 0 -16 0zM2913.83 711.25 a8 8 0 1 0 16 0 a8 8 0 1 0 -16 0zM2844.54 751.25 a8 8 0 1 0 16 0 a8 8 0 1 0 -16 0zM2775.26 711.25 a8 8 0 1 0 16 0 a8 8 0 1 0 -16 0zM2844.54 1071.25 a8 8 0 1 0 16 0 a8 8 0 1 0 -16 0zM2913.83 1111.25 a8 8 0 1 0 16 0 a8 8 0 1 0 -16 0zM2913.83 1191.25 a8 8 0 1 0 16 0 a8 8 0 1 0 -16 0zM2844.54 1231.25 a8 8 0 1 0 16 0 a8 8 0 1 0 -16 0zM2775.26 1191.25 a8 8 0 1 0 16 0 a8 8 0 1 0 -16 0zM2775.26 1111.25 a8 8 0 1 0 16 0 a8 8 0 1 0 -16 0zM2844.54 1311.25 a8 8 0 1 0 16 0 a8 8 0 1 0 -16 0zM2913.83 1351.25 a8 8 0 1 0 16 0 a8 8 0 1 0 -16 0zM2913.83 1431.25 a8 8 0 1 0 16 0 a8 8 0 1 0 -16 0zM2844.54 1471.25 a8 8 0 1 0 16 0 a8 8 0 1 0 -16 0zM2775.26 1431.25 a8 8 0 1 0 16 0 a8 8 0 1 0 -16 0zM2775.26 1351.25 a8 8 0 1 0 16 0 a8 8 0 1 0 -16 0zM2775.26 1671.25 a8 8 0 1 0 16 0 a8 8 0 1 0 -16 0zM2844.54 1711.25 a8 8 0 1 0 16 0 a8 8 0 1 0 -16 0zM2844.54 1791.25 a8 8 0 1 0 16 0 a8 8 0 1 0 -16 0zM2775.26 1831.25 a8 8 0 1 0 16 0 a8 8 0 1 0 -16 0zM2705.98 1791.25 a8 8 0 1 0 16 0 a8 8 0 1 0 -16 0zM2705.98 1711.25 a8 8 0 1 0 16 0 a8 8 0 1 0 -16 0zM2913.83 1831.25 a8 8 0 1 0 16 0 a8 8 0 1 0 -16 0zM2913.83 1911.25 a8 8 0 1 0 16 0 a8 8 0 1 0 -16 0zM2844.54 1951.25 a8 8 0 1 0 16 0 a8 8 0 1 0 -16 0zM2775.26 1911.25 a8 8 0 1 0 16 0 a8 8 0 1 0 -16 0zM2983.11 111.25 a8 8 0 1 0 16 0 a8 8 0 1 0 -16 0zM3052.4 151.25 a8 8 0 1 0 16 0 a8 8 0 1 0 -16 0zM3052.4 231.25 a8 8 0 1 0 16 0 a8 8 0 1 0 -16 0zM2983.11 271.25 a8 8 0 1 0 16 0 a8 8 0 1 0 -16 0zM2913.83 231.25 a8 8 0 1 0 16 0 a8 8 0 1 0 -16 0zM2913.83 151.25 a8 8 0 1 0 16 0 a8 8 0 1 0 -16 0zM2983.11 351.25 a8 8 0 1 0 16 0 a8 8 0 1 0 -16 0zM2844.54 271.25 a8 8 0 1 0 16 0 a8 8 0 1 0 -16 0zM2983.11 751.25 a8 8 0 1 0 16 0 a8 8 0 1 0 -16 0zM2983.11 831.25 a8 8 0 1 0 16 0 a8 8 0 1 0 -16 0zM2913.83 871.25 a8 8 0 1 0 16 0 a8 8 0 1 0 -16 0zM2844.54 831.25 a8 8 0 1 0 16 0 a8 8 0 1 0 -16 0zM2983.11 1231.25 a8 8 0 1 0 16 0 a8 8 0 1 0 -16 0zM2983.11 1311.25 a8 8 0 1 0 16 0 a8 8 0 1 0 -16 0zM3052.4 1351.25 a8 8 0 1 0 16 0 a8 8 0 1 0 -16 0zM3052.4 1431.25 a8 8 0 1 0 16 0 a8 8 0 1 0 -16 0zM2983.11 1471.25 a8 8 0 1 0 16 0 a8 8 0 1 0 -16 0zM2983.11 1551.25 a8 8 0 1 0 16 0 a8 8 0 1 0 -16 0zM3052.4 1591.25 a8 8 0 1 0 16 0 a8 8 0 1 0 -16 0zM3052.4 1671.25 a8 8 0 1 0 16 0 a8 8 0 1 0 -16 0zM2983.11 1711.25 a8 8 0 1 0 16 0 a8 8 0 1 0 -16 0zM2913.83 1671.25 a8 8 0 1 0 16 0 a8 8 0 1 0 -16 0zM2913.83 1591.25 a8 8 0 1 0 16 0 a8 8 0 1 0 -16 0zM2983.11 1791.25 a8 8 0 1 0 16 0 a8 8 0 1 0 -16 0zM3052.4 1831.25 a8 8 0 1 0 16 0 a8 8 0 1 0 -16 0zM3052.4 1911.25 a8 8 0 1 0 16 0 a8 8 0 1 0 -16 0zM2983.11 1951.25 a8 8 0 1 0 16 0 a8 8 0 1 0 -16 0zM2983.11 2031.25 a8 8 0 1 0 16 0 a8 8 0 1 0 -16 0zM2913.83 2071.25 a8 8 0 1 0 16 0 a8 8 0 1 0 -16 0zM2844.54 2031.25 a8 8 0 1 0 16 0 a8 8 0 1 0 -16 0zM3052.4 2071.25 a8 8 0 1 0 16 0 a8 8 0 1 0 -16 0zM3052.4 2151.25 a8 8 0 1 0 16 0 a8 8 0 1 0 -16 0zM2983.11 2191.25 a8 8 0 1 0 16 0 a8 8 0 1 0 -16 0zM2913.83 2151.25 a8 8 0 1 0 16 0 a8 8 0 1 0 -16 0zM3052.4 471.25 a8 8 0 1 0 16 0 a8 8 0 1 0 -16 0zM3121.68 511.25 a8 8 0 1 0 16 0 a8 8 0 1 0 -16 0zM3121.68 591.25 a8 8 0 1 0 16 0 a8 8 0 1 0 -16 0zM3052.4 631.25 a8 8 0 1 0 16 0 a8 8 0 1 0 -16 0zM2983.11 591.25 a8 8 0 1 0 16 0 a8 8 0 1 0 -16 0zM2983.11 511.25 a8 8 0 1 0 16 0 a8 8 0 1 0 -16 0zM3190.96 631.25 a8 8 0 1 0 16 0 a8 8 0 1 0 -16 0zM3190.96 711.25 a8 8 0 1 0 16 0 a8 8 0 1 0 -16 0zM3121.68 751.25 a8 8 0 1 0 16 0 a8 8 0 1 0 -16 0zM3052.4 711.25 a8 8 0 1 0 16 0 a8 8 0 1 0 -16 0zM3121.68 831.25 a8 8 0 1 0 16 0 a8 8 0 1 0 -16 0zM3052.4 871.25 a8 8 0 1 0 16 0 a8 8 0 1 0 -16 0zM3052.4 951.25 a8 8 0 1 0 16 0 a8 8 0 1 0 -16 0zM3121.68 991.25 a8 8 0 1 0 16 0 a8 8 0 1 0 -16 0zM3121.68 1071.25 a8 8 0 1 0 16 0 a8 8 0 1 0 -16 0zM3052.4 1111.25 a8 8 0 1 0 16 0 a8 8 0 1 0 -16 0zM2983.11 1071.25 a8 8 0 1 0 16 0 a8 8 0 1 0 -16 0zM2983.11 991.25 a8 8 0 1 0 16 0 a8 8 0 1 0 -16 0zM3190.96 1111.25 a8 8 0 1 0 16 0 a8 8 0 1 0 -16 0zM3190.96 1191.25 a8 8 0 1 0 16 0 a8 8 0 1 0 -16 0zM3121.68 1231.25 a8 8 0 1 0 16 0 a8 8 0 1 0 -16 0zM3052.4 1191.25 a8 8 0 1 0 16 0 a8 8 0 1 0 -16 0zM3121.68 1551.25 a8 8 0 1 0 16 0 a8 8 0 1 0 -16 0zM3190.96 1591.25 a8 8 0 1 0 16 0 a8 8 0 1 0 -16 0zM3190.96 1671.25 a8 8 0 1 0 16 0 a8 8 0 1 0 -16 0zM3121.68 1711.25 a8 8 0 1 0 16 0 a8 8 0 1 0 -16 0zM3121.68 2191.25 a8 8 0 1 0 16 0 a8 8 0 1 0 -16 0zM3121.68 2271.25 a8 8 0 1 0 16 0 a8 8 0 1 0 -16 0zM3052.4 2311.25 a8 8 0 1 0 16 0 a8 8 0 1 0 -16 0zM2983.11 2271.25 a8 8 0 1 0 16 0 a8 8 0 1 0 -16 0zM3260.25 351.25 a8 8 0 1 0 16 0 a8 8 0 1 0 -16 0zM3329.53 391.25 a8 8 0 1 0 16 0 a8 8 0 1 0 -16 0zM3329.53 471.25 a8 8 0 1 0 16 0 a8 8 0 1 0 -16 0zM3260.25 511.25 a8 8 0 1 0 16 0 a8 8 0 1 0 -16 0zM3190.96 471.25 a8 8 0 1 0 16 0 a8 8 0 1 0 -16 0zM3190.96 391.25 a8 8 0 1 0 16 0 a8 8 0 1 0 -16 0zM3190.96 951.25 a8 8 0 1 0 16 0 a8 8 0 1 0 -16 0zM3260.25 991.25 a8 8 0 1 0 16 0 a8 8 0 1 0 -16 0zM3260.25 1071.25 a8 8 0 1 0 16 0 a8 8 0 1 0 -16 0zM3329.53 1111.25 a8 8 0 1 0 16 0 a8 8 0 1 0 -16 0zM3329.53 1191.25 a8 8 0 1 0 16 0 a8 8 0 1 0 -16 0zM3260.25 1231.25 a8 8 0 1 0 16 0 a8 8 0 1 0 -16 0zM3329.53 -8.75 a8 8 0 1 0 16 0 a8 8 0 1 0 -16 0zM3398.82 31.25 a8 8 0 1 0 16 0 a8 8 0 1 0 -16 0zM3398.82 111.25 a8 8 0 1 0 16 0 a8 8 0 1 0 -16 0zM3329.53 151.25 a8 8 0 1 0 16 0 a8 8 0 1 0 -16 0zM3260.25 111.25 a8 8 0 1 0 16 0 a8 8 0 1 0 -16 0zM3260.25 31.25 a8 8 0 1 0 16 0 a8 8 0 1 0 -16 0zM3329.53 231.25 a8 8 0 1 0 16 0 a8 8 0 1 0 -16 0zM3398.82 271.25 a8 8 0 1 0 16 0 a8 8 0 1 0 -16 0zM3398.82 351.25 a8 8 0 1 0 16 0 a8 8 0 1 0 -16 0zM3260.25 271.25 a8 8 0 1 0 16 0 a8 8 0 1 0 -16 0zM3468.1 391.25 a8 8 0 1 0 16 0 a8 8 0 1 0 -16 0zM3468.1 471.25 a8 8 0 1 0 16 0 a8 8 0 1 0 -16 0zM3398.82 511.25 a8 8 0 1 0 16 0 a8 8 0 1 0 -16 0zM3398.82 1071.25 a8 8 0 1 0 16 0 a8 8 0 1 0 -16 0zM3468.1 1111.25 a8 8 0 1 0 16 0 a8 8 0 1 0 -16 0zM3468.1 1191.25 a8 8 0 1 0 16 0 a8 8 0 1 0 -16 0zM3398.82 1231.25 a8 8 0 1 0 16 0 a8 8 0 1 0 -16 0zM3398.82 1311.25 a8 8 0 1 0 16 0 a8 8 0 1 0 -16 0zM3329.53 1351.25 a8 8 0 1 0 16 0 a8 8 0 1 0 -16 0zM3260.25 1311.25 a8 8 0 1 0 16 0 a8 8 0 1 0 -16 0zM3398.82 2031.25 a8 8 0 1 0 16 0 a8 8 0 1 0 -16 0zM3468.1 2071.25 a8 8 0 1 0 16 0 a8 8 0 1 0 -16 0zM3468.1 2151.25 a8 8 0 1 0 16 0 a8 8 0 1 0 -16 0zM3398.82 2191.25 a8 8 0 1 0 16 0 a8 8 0 1 0 -16 0zM3329.53 2151.25 a8 8 0 1 0 16 0 a8 8 0 1 0 -16 0zM3329.53 2071.25 a8 8 0 1 0 16 0 a8 8 0 1 0 -16 0zM3537.38 111.25 a8 8 0 1 0 16 0 a8 8 0 1 0 -16 0zM3606.67 151.25 a8 8 0 1 0 16 0 a8 8 0 1 0 -16 0zM3606.67 231.25 a8 8 0 1 0 16 0 a8 8 0 1 0 -16 0zM3537.38 271.25 a8 8 0 1 0 16 0 a8 8 0 1 0 -16 0zM3468.1 231.25 a8 8 0 1 0 16 0 a8 8 0 1 0 -16 0zM3468.1 151.25 a8 8 0 1 0 16 0 a8 8 0 1 0 -16 0zM3537.38 351.25 a8 8 0 1 0 16 0 a8 8 0 1 0 -16 0zM3537.38 591.25 a8 8 0 1 0 16 0 a8 8 0 1 0 -16 0zM3606.67 631.25 a8 8 0 1 0 16 0 a8 8 0 1 0 -16 0zM3606.67 711.25 a8 8 0 1 0 16 0 a8 8 0 1 0 -16 0zM3537.38 751.25 a8 8 0 1 0 16 0 a8 8 0 1 0 -16 0zM3468.1 711.25 a8 8 0 1 0 16 0 a8 8 0 1 0 -16 0zM3468.1 631.25 a8 8 0 1 0 16 0 a8 8 0 1 0 -16 0zM3468.1 1431.25 a8 8 0 1 0 16 0 a8 8 0 1 0 -16 0zM3537.38 1471.25 a8 8 0 1 0 16 0 a8 8 0 1 0 -16 0zM3537.38 1551.25 a8 8 0 1 0 16 0 a8 8 0 1 0 -16 0zM3468.1 1591.25 a8 8 0 1 0 16 0 a8 8 0 1 0 -16 0zM3398.82 1551.25 a8 8 0 1 0 16 0 a8 8 0 1 0 -16 0zM3398.82 1471.25 a8 8 0 1 0 16 0 a8 8 0 1 0 -16 0zM3537.38 2191.25 a8 8 0 1 0 16 0 a8 8 0 1 0 -16 0zM3537.38 2271.25 a8 8 0 1 0 16 0 a8 8 0 1 0 -16 0zM3468.1 2311.25 a8 8 0 1 0 16 0 a8 8 0 1 0 -16 0zM3398.82 2271.25 a8 8 0 1 0 16 0 a8 8 0 1 0 -16 0zM3606.67 471.25 a8 8 0 1 0 16 0 a8 8 0 1 0 -16 0zM3675.95 511.25 a8 8 0 1 0 16 0 a8 8 0 1 0 -16 0zM3675.95 591.25 a8 8 0 1 0 16 0 a8 8 0 1 0 -16 0zM3537.38 511.25 a8 8 0 1 0 16 0 a8 8 0 1 0 -16 0zM3606.67 1431.25 a8 8 0 1 0 16 0 a8 8 0 1 0 -16 0zM3675.95 1471.25 a8 8 0 1 0 16 0 a8 8 0 1 0 -16 0zM3675.95 1551.25 a8 8 0 1 0 16 0 a8 8 0 1 0 -16 0zM3606.67 1591.25 a8 8 0 1 0 16 0 a8 8 0 1 0 -16 0zM3745.24 1591.25 a8 8 0 1 0 16 0 a8 8 0 1 0 -16 0zM3745.24 1671.25 a8 8 0 1 0 16 0 a8 8 0 1 0 -16 0zM3675.95 1711.25 a8 8 0 1 0 16 0 a8 8 0 1 0 -16 0zM3606.67 1671.25 a8 8 0 1 0 16 0 a8 8 0 1 0 -16 0zM3675.95 1791.25 a8 8 0 1 0 16 0 a8 8 0 1 0 -16 0zM3745.24 1831.25 a8 8 0 1 0 16 0 a8 8 0 1 0 -16 0zM3745.24 1911.25 a8 8 0 1 0 16 0 a8 8 0 1 0 -16 0zM3675.95 1951.25 a8 8 0 1 0 16 0 a8 8 0 1 0 -16 0zM3606.67 1911.25 a8 8 0 1 0 16 0 a8 8 0 1 0 -16 0zM3606.67 1831.25 a8 8 0 1 0 16 0 a8 8 0 1 0 -16 0zM3675.95 2031.25 a8 8 0 1 0 16 0 a8 8 0 1 0 -16 0zM3745.24 2071.25 a8 8 0 1 0 16 0 a8 8 0 1 0 -16 0zM3745.24 2151.25 a8 8 0 1 0 16 0 a8 8 0 1 0 -16 0zM3675.95 2191.25 a8 8 0 1 0 16 0 a8 8 0 1 0 -16 0zM3606.67 2151.25 a8 8 0 1 0 16 0 a8 8 0 1 0 -16 0zM3606.67 2071.25 a8 8 0 1 0 16 0 a8 8 0 1 0 -16 0zM3814.52 351.25 a8 8 0 1 0 16 0 a8 8 0 1 0 -16 0zM3883.8 391.25 a8 8 0 1 0 16 0 a8 8 0 1 0 -16 0zM3883.8 471.25 a8 8 0 1 0 16 0 a8 8 0 1 0 -16 0zM3814.52 511.25 a8 8 0 1 0 16 0 a8 8 0 1 0 -16 0zM3745.24 471.25 a8 8 0 1 0 16 0 a8 8 0 1 0 -16 0zM3745.24 391.25 a8 8 0 1 0 16 0 a8 8 0 1 0 -16 0zM3814.52 1311.25 a8 8 0 1 0 16 0 a8 8 0 1 0 -16 0zM3883.8 1351.25 a8 8 0 1 0 16 0 a8 8 0 1 0 -16 0zM3883.8 1431.25 a8 8 0 1 0 16 0 a8 8 0 1 0 -16 0zM3814.52 1471.25 a8 8 0 1 0 16 0 a8 8 0 1 0 -16 0zM3745.24 1431.25 a8 8 0 1 0 16 0 a8 8 0 1 0 -16 0zM3745.24 1351.25 a8 8 0 1 0 16 0 a8 8 0 1 0 -16 0zM3814.52 1711.25 a8 8 0 1 0 16 0 a8 8 0 1 0 -16 0zM3814.52 1791.25 a8 8 0 1 0 16 0 a8 8 0 1 0 -16 0zM3883.8 1831.25 a8 8 0 1 0 16 0 a8 8 0 1 0 -16 0zM3883.8 1911.25 a8 8 0 1 0 16 0 a8 8 0 1 0 -16 0zM3814.52 1951.25 a8 8 0 1 0 16 0 a8 8 0 1 0 -16 0zM3814.52 2191.25 a8 8 0 1 0 16 0 a8 8 0 1 0 -16 0zM3814.52 2271.25 a8 8 0 1 0 16 0 a8 8 0 1 0 -16 0zM3745.24 2311.25 a8 8 0 1 0 16 0 a8 8 0 1 0 -16 0zM3675.95 2271.25 a8 8 0 1 0 16 0 a8 8 0 1 0 -16 0z" fill="#03305d"></path><path d="M186.12 736.77L276.19 788.77L276.19 892.77L186.12 944.77L96.05 892.77L96.05 788.77zM96.05 1204.77L186.12 1256.77L186.12 1360.77L96.05 1412.77L5.98 1360.77L5.98 1256.77zM96.05 2140.77L186.12 2192.77L186.12 2296.77L96.05 2348.77L5.98 2296.77L5.98 2192.77zM366.26 1360.77L456.33 1412.77L456.33 1516.77L366.26 1568.77L276.19 1516.77L276.19 1412.77zM366.26 1672.77L456.33 1724.77L456.33 1828.77L366.26 1880.77L276.19 1828.77L276.19 1724.77zM456.33 -43.23L546.4 8.77L546.4 112.77L456.33 164.77L366.26 112.77L366.26 8.77zM546.4 1360.77L636.47 1412.77L636.47 1516.77L546.4 1568.77L456.33 1516.77L456.33 1412.77zM636.47 -43.23L726.53 8.77L726.53 112.77L636.47 164.77L546.4 112.77L546.4 8.77zM906.67 112.77L996.74 164.77L996.74 268.77L906.67 320.77L816.6 268.77L816.6 164.77zM906.67 1672.77L996.74 1724.77L996.74 1828.77L906.67 1880.77L816.6 1828.77L816.6 1724.77zM816.6 2140.77L906.67 2192.77L906.67 2296.77L816.6 2348.77L726.53 2296.77L726.53 2192.77zM996.74 2140.77L1086.81 2192.77L1086.81 2296.77L996.74 2348.77L906.67 2296.77L906.67 2192.77zM1266.95 424.77L1357.02 476.77L1357.02 580.77L1266.95 632.77L1176.88 580.77L1176.88 476.77zM1176.88 892.77L1266.95 944.77L1266.95 1048.77L1176.88 1100.77L1086.81 1048.77L1086.81 944.77zM1447.09 112.77L1537.16 164.77L1537.16 268.77L1447.09 320.77L1357.02 268.77L1357.02 164.77zM1717.3 1516.77L1807.36 1568.77L1807.36 1672.77L1717.3 1724.77L1627.23 1672.77L1627.23 1568.77zM1717.3 1828.77L1807.36 1880.77L1807.36 1984.77L1717.3 2036.77L1627.23 1984.77L1627.23 1880.77zM1897.43 -43.23L1987.5 8.77L1987.5 112.77L1897.43 164.77L1807.36 112.77L1807.36 8.77zM1987.5 112.77L2077.57 164.77L2077.57 268.77L1987.5 320.77L1897.43 268.77L1897.43 164.77zM1897.43 892.77L1987.5 944.77L1987.5 1048.77L1897.43 1100.77L1807.36 1048.77L1807.36 944.77zM1987.5 1672.77L2077.57 1724.77L2077.57 1828.77L1987.5 1880.77L1897.43 1828.77L1897.43 1724.77zM2077.57 1204.77L2167.64 1256.77L2167.64 1360.77L2077.57 1412.77L1987.5 1360.77L1987.5 1256.77zM2257.71 -43.23L2347.78 8.77L2347.78 112.77L2257.71 164.77L2167.64 112.77L2167.64 8.77zM2347.78 1360.77L2437.85 1412.77L2437.85 1516.77L2347.78 1568.77L2257.71 1516.77L2257.71 1412.77zM2437.85 580.77L2527.92 632.77L2527.92 736.77L2437.85 788.77L2347.78 736.77L2347.78 632.77zM2527.92 1360.77L2617.99 1412.77L2617.99 1516.77L2527.92 1568.77L2437.85 1516.77L2437.85 1412.77zM2708.06 736.77L2798.13 788.77L2798.13 892.77L2708.06 944.77L2617.99 892.77L2617.99 788.77zM2617.99 1828.77L2708.06 1880.77L2708.06 1984.77L2617.99 2036.77L2527.92 1984.77L2527.92 1880.77zM3068.33 1360.77L3158.4 1412.77L3158.4 1516.77L3068.33 1568.77L2978.26 1516.77L2978.26 1412.77zM3248.47 1048.77L3338.54 1100.77L3338.54 1204.77L3248.47 1256.77L3158.4 1204.77L3158.4 1100.77zM3158.4 1204.77L3248.47 1256.77L3248.47 1360.77L3158.4 1412.77L3068.33 1360.77L3068.33 1256.77zM3158.4 1828.77L3248.47 1880.77L3248.47 1984.77L3158.4 2036.77L3068.33 1984.77L3068.33 1880.77zM3608.75 424.77L3698.82 476.77L3698.82 580.77L3608.75 632.77L3518.68 580.77L3518.68 476.77zM3608.75 1672.77L3698.82 1724.77L3698.82 1828.77L3608.75 1880.77L3518.68 1828.77L3518.68 1724.77zM3518.68 1828.77L3608.75 1880.77L3608.75 1984.77L3518.68 2036.77L3428.61 1984.77L3428.61 1880.77zM3608.75 1984.77L3698.82 2036.77L3698.82 2140.77L3608.75 2192.77L3518.68 2140.77L3518.68 2036.77zM3969.03 1672.77L4059.09 1724.77L4059.09 1828.77L3969.03 1880.77L3878.96 1828.77L3878.96 1724.77z" stroke="rgba(6, 80, 156, 0.93)" stroke-width="2"></path></g><defs><mask id="SvgjsMask2856"><rect width="3840" height="2160" fill="#ffffff"></rect></mask><linearGradient x1="10.94%" y1="-19.44%" x2="89.06%" y2="119.44%" gradientUnits="userSpaceOnUse" id="SvgjsLinearGradient2857"><stop stop-color="#0e2a47" offset="0"></stop><stop stop-color="rgba(8, 13, 20, 1)" offset="1"></stop></linearGradient></defs></svg>